<svg xmlns="http://www.w3.org/2000/svg" viewBox="0 0 512 512">
  <defs>
    <linearGradient id="ng1" x1="4611" y1="4705" x2="7265" y2="2842" gradientUnits="userSpaceOnUse"><stop offset="0" stop-color="#B0B5B8"/><stop offset="0.56" stop-color="#E0E0E0"/><stop offset="1" stop-color="white"/></linearGradient>
    <linearGradient id="ng2" x1="4754" y1="4175" x2="7394" y2="2943" gradientUnits="userSpaceOnUse"><stop offset="0" stop-color="#2997A6"/><stop offset="1" stop-color="#6CB9B3"/></linearGradient>
    <linearGradient id="ng3" x1="6699" y1="3555" x2="7082" y2="2719" gradientUnits="userSpaceOnUse"><stop offset="0" stop-color="#6EB9B5"/><stop offset="1" stop-color="#A2D3CD"/></linearGradient>
  </defs>
  <rect width="512" height="512" rx="104" fill="#2E2B6F"/>
  <g transform="translate(56 131) scale(0.05) translate(-2000 -1500)">
    <path fill="url(#ng1)" d="M6001.88 2026.53c528.34,-45.83 1047.54,85.34 1455.46,365.7 -336.87,-169.19 -840.85,-233.84 -1265.2,-182.08 -906.73,110.59 -1818.63,798.78 -1564.97,1685.27 -233.41,68.76 -424.86,98.39 -644.04,85.43 -3.12,-39.37 -4.83,-79.21 -4.83,-119.53 0,-975.08 881.89,-1735.74 2023.58,-1834.78zm-1194.34 2419.53c276.46,340.03 789.14,504.55 1395.04,415.61 915.15,-134.33 1630.63,-895.57 1618.85,-1617.4 -3.14,-192.37 -43.25,-378.3 -128.08,-536.49 205.53,261.84 326.75,580.89 332.11,925.87 14.76,947.49 -854.07,1817.8 -1994.94,1847.8 -986.55,25.94 -1765.23,-465.5 -1987.84,-1187.83 279.34,106.23 490.47,142.7 764.86,152.43z"/>
    <path fill="#0D5667" d="M5351.13 5412.25c444.31,-2.93 796.15,-214.96 871.37,-553.73 -6.65,1.05 -13.27,2.18 -19.93,3.15 -605.89,88.94 -1118.57,-75.58 -1395.04,-415.61 -274.39,-9.72 -485.52,-46.2 -764.86,-152.43 168.33,546.23 654.72,960.35 1308.45,1118.62z"/>
    <path fill="url(#ng2)" d="M6222.5 4858.52c-6.65,1.05 -13.27,2.18 -19.93,3.15 -605.89,88.94 -1118.57,-75.58 -1395.04,-415.61 -274.39,-9.72 -485.52,-46.2 -764.86,-152.43 62.98,204.37 170.5,390.24 314.64,551.15 233.76,258.16 692.57,390.21 1101.06,386.7 348.4,-2.98 660.13,-121.31 764.12,-372.97z"/>
    <path fill="#5299B7" d="M4467.21 4413.39c-127.06,-21.89 -252.81,-56.2 -395.82,-109 49.9,140.64 114.7,265.09 194.38,373.37 8.14,-154.47 75.3,-242.59 201.44,-264.36z"/>
    <path fill="url(#ng2)" d="M6226.89 3566.5c370.26,-229.61 500.82,-385.18 439.76,-562.89 -46.49,-135.31 -295.41,-222.75 -677.43,-151.89 -571.03,105.92 -981.15,367.01 -1218.09,665.99 229.79,-562.96 959.85,-1026.81 1660.15,-1073.04 691.39,-45.64 1030.66,225.59 1006.52,597.96 -10.82,166.77 -95.87,343.69 -248.21,507.61 -246.11,264.8 -662.82,500.89 -1188.06,643.91 -851.26,231.8 -1703.38,134.91 -2027.17,-74.38 703.2,43.1 1481.57,-134.77 2252.54,-553.28z"/>
    <path fill="url(#ng3)" d="M6226.89 3566.5c370.26,-229.61 500.82,-385.18 439.76,-562.89 -18.22,-53.04 -67.56,-98.72 -143.79,-130.39l0.01 0 -0.33 -0.12 -4.29 -1.74c-36.51,-15.62 -39.62,-41.52 -10.41,-78.5 77.23,-97.75 160.07,-186.44 251.21,-263.32 30.1,-25.39 63.68,-34.24 105.02,-28.07 249.3,44.18 422.84,160.34 498.71,334.93 82.05,188.85 18.29,380.59 -95.67,544.07 -313.36,449.54 -1153.73,504.19 -1728.41,496.3 228.61,-82.45 458.74,-185.69 688.2,-310.26z"/>
  </g>
</svg>
