<?xml version="1.0" encoding="UTF-8"?>
<!DOCTYPE svg PUBLIC "-//W3C//DTD SVG 1.1//EN" "http://www.w3.org/Graphics/SVG/1.1/DTD/svg11.dtd">
<!-- Creator: CorelDRAW 2021 (64-Bit) -->
<svg xmlns="http://www.w3.org/2000/svg" xml:space="preserve" width="12in" height="7.5in" version="1.1" style="shape-rendering:geometricPrecision; text-rendering:geometricPrecision; image-rendering:optimizeQuality; fill-rule:evenodd; clip-rule:evenodd"
viewBox="0 0 12000 7500"
 xmlns:xlink="http://www.w3.org/1999/xlink"
 xmlns:xodm="http://www.corel.com/coreldraw/odm/2003">
 <defs>
  <style type="text/css">
   <![CDATA[
    .fil0 {fill:white}
    .fil1 {fill:white;fill-rule:nonzero}
   ]]>
  </style>
 </defs>
 <g id="Layer_x0020_1">
  <metadata id="CorelCorpID_0Corel-Layer"/>
  <path class="fil0" d="M3210.44 2803.87c312.76,-25.16 620.11,46.85 861.59,200.76 -199.42,-92.88 -497.76,-128.37 -748.96,-99.96 -536.76,60.71 -1076.57,438.51 -926.41,925.16 -138.17,37.75 -251.5,54.02 -381.25,46.9 -1.85,-21.62 -2.85,-43.49 -2.85,-65.62 0,-535.29 522.05,-952.87 1197.89,-1007.24zm-707.01 1328.24c163.66,186.67 467.15,276.98 825.81,228.16 541.74,-73.74 965.28,-491.64 958.3,-887.9 -1.86,-105.6 -25.6,-207.67 -75.82,-294.51 121.67,143.74 193.42,318.89 196.6,508.28 8.74,520.14 -505.58,997.91 -1180.94,1014.38 -584,14.24 -1044.95,-255.54 -1176.73,-652.08 165.36,58.32 290.34,78.34 452.77,83.68z"/>
  <path class="fil0" d="M3343.64 3649.26c219.18,-126.05 296.46,-211.45 260.32,-309.01 -27.52,-74.28 -174.87,-122.28 -401.01,-83.38 -338.03,58.15 -580.81,201.48 -721.06,365.61 136.02,-309.05 568.2,-563.69 982.75,-589.06 409.28,-25.06 610.12,123.85 595.82,328.26 -6.41,91.55 -56.75,188.67 -146.93,278.66 -145.69,145.37 -392.37,274.97 -703.29,353.48 -503.92,127.25 -1008.34,74.06 -1200.02,-40.83 416.27,23.66 877.04,-73.98 1333.43,-303.73z"/>
  <polygon class="fil0" points="4857.54,3257 4857.54,3389.65 5404,3389.65 5404,3521.67 4857.54,3521.67 4857.54,3664.59 5460.55,3664.59 5460.55,3805.67 4857.54,3805.67 4819.71,3805.67 4668.58,3805.67 4668.58,3257 4668.58,3195.73 4668.58,3116 5449.57,3116 5449.57,3257 "/>
  <polygon class="fil0" points="5527.46,3116 5938.56,3805.67 6145.32,3805.67 6556.42,3116 6347.54,3116 6041.94,3643.28 5736.34,3116 "/>
  <path class="fil0" d="M6394.87 3805.67l411.1 -689.67 206.76 0 411.1 689.67 -208.88 0 -76.5 -132 -458.19 0 -76.5 132 -208.89 0zm664.43 -268.56l-149.95 -258.72 -149.95 258.72 299.9 0z"/>
  <polygon class="fil0" points="7519.33,3116 7706.02,3116 7706.02,3664.2 8237.56,3664.2 8237.56,3805.67 7706.02,3805.67 7609.98,3805.67 7519.33,3805.67 "/>
  <polygon class="fil0" points="9395.98,3257 9395.98,3389.65 9942.43,3389.65 9942.43,3521.67 9395.98,3521.67 9395.98,3664.59 9998.98,3664.59 9998.98,3805.67 9395.98,3805.67 9358.15,3805.67 9207.02,3805.67 9207.02,3257 9207.02,3195.73 9207.02,3116 9988.01,3116 9988.01,3257 "/>
  <polygon class="fil0" points="8094.15,3116 8505.25,3805.67 8712.02,3805.67 9123.11,3116 8914.23,3116 8608.63,3643.28 8303.04,3116 "/>
  <path class="fil1" d="M5583.95 4315.93l-45.13 -43.66c-33.1,28.06 -63.7,40.09 -101.81,40.09 -70.22,0 -119.37,-41.43 -119.37,-101.57 0,-59.25 46.65,-100.23 116.36,-100.23 37.11,0 67.71,13.81 92.78,36.08l50.66 -43.66c-31.6,-31.19 -83.76,-52.57 -144.44,-52.57 -110.34,0 -192.09,68.16 -192.09,160.82 0,95.33 87.27,161.72 193.1,161.72 64.7,0 116.36,-24.06 149.96,-57.02z"/>
  <path class="fil1" d="M5869.51 4050.42c-109.33,0 -193.6,66.38 -193.6,161.27 0,94.89 84.26,161.27 193.6,161.27 109.34,0 193.6,-66.38 193.6,-161.27 0,-94.89 -84.26,-161.27 -193.6,-161.27zm0 262.84c-70.72,0 -116.86,-41.43 -116.86,-101.57 0,-60.14 46.14,-101.13 116.86,-101.13 70.72,0 116.86,40.98 116.86,101.13 0,60.14 -46.14,101.57 -116.86,101.57z"/>
  <polygon class="fil1" points="6519.52,4055.76 6445.29,4055.76 6445.29,4254.69 6438.27,4247.32 6255.7,4055.76 6190.5,4055.76 6190.5,4367.61 6264.73,4367.61 6264.73,4167.41 6455.54,4367.61 6519.52,4367.61 "/>
  <path class="fil1" d="M6728.97 4143.7c0.51,-21.49 28.93,-35.81 67.46,-35.81 30.19,0 68.56,9.81 103.36,25.43l28.15 -51.59c-33.83,-16.04 -75.29,-30.48 -125.27,-30.48 -87.45,0 -151.43,38.05 -150.35,97.74 1.47,81.09 113.9,83.72 175.55,101.07 23.35,6.57 39.42,14.4 39.42,30.67 0,25.39 -39.11,33.86 -71.38,33.86 -43.21,0 -89.53,-14.79 -122.85,-31.72l-29.15 52.32c32.27,19.16 87.97,38.2 153.04,38.2 87.45,0 146.8,-38.67 146.8,-99.35 0,-63.56 -66.38,-77.15 -125.33,-86.43 -51.93,-8.17 -90.08,-17.13 -89.44,-43.93z"/>
  <path class="fil1" d="M7386.81 4055.76l-75.93 0 0 178.65c0,50.79 -39.24,78.41 -87.65,78.41 -49.44,0 -87.66,-27.62 -87.66,-78.41l0 -178.65 -76.44 0 0 178.65c0,86.87 69.81,138.99 164.09,138.99 93.25,0 163.58,-52.13 163.58,-138.99l0 -178.65z"/>
  <polygon class="fil1" points="7781.73,4309.24 7600.01,4309.24 7600.01,4055.76 7522.73,4055.76 7522.73,4367.61 7781.73,4367.61 "/>
  <polygon class="fil1" points="8134.55,4055.76 7831.67,4055.76 7825.25,4055.76 7825.25,4114.12 7831.67,4114.12 7943.86,4114.12 7943.86,4367.61 8021.83,4367.61 8021.83,4114.12 8134.55,4114.12 8140.97,4114.12 8140.97,4055.76 "/>
  <polygon class="fil1" points="8327.62,4055.76 8250.35,4055.76 8250.35,4367.61 8327.62,4367.61 "/>
  <path class="fil1" d="M9196.68 4209.04l0 11.76 0 26.08 0 50.79c-14.21,7.19 -39.01,15.7 -73.48,16.03 -66.37,0.63 -115.92,-43.21 -115.92,-102.46 0,-60.58 51.92,-101.51 116.91,-100.68 34.03,0.43 73.78,11.14 98.21,37.49l50.03 -44.54c-37.35,-35.06 -99.91,-53.09 -147.26,-53.09 -110.5,0 -197.54,65.93 -197.54,161.27 0,93.55 85.06,161.27 192.6,161.27 78.92,0 130.71,-30.74 150.94,-45l0 -118.92 -74.5 0z"/>
  <polygon class="fil1" points="8804.41,4055.76 8730.18,4055.76 8730.18,4254.69 8723.16,4247.32 8540.59,4055.76 8475.39,4055.76 8475.39,4367.61 8549.62,4367.61 8549.62,4167.41 8740.43,4367.61 8804.41,4367.61 "/>
 </g>
</svg>
