<?xml version="1.0"?>

<svg xmlns="http://www.w3.org/2000/svg" style="display:none">
  <symbol id="evalve-bolt" viewBox="0 0 24 24" fill="none" stroke="currentColor" stroke-width="1.5" stroke-linecap="round" stroke-linejoin="round">
    <path d="M13 2 L5 13.5 h6 l-1 8.5 8 -11.5 h-6 z"></path>
  </symbol>
  <symbol id="evalve-package" viewBox="0 0 24 24" fill="none" stroke="currentColor" stroke-width="1.5" stroke-linecap="round" stroke-linejoin="round">
    <path d="M21 8 12 3 3 8 v8 l9 5 9-5 z"></path><path d="M3 8 l9 5 9-5"></path><path d="M12 13 v8"></path>
  </symbol>
  <symbol id="evalve-wrench" viewBox="0 0 24 24" fill="none" stroke="currentColor" stroke-width="1.5" stroke-linecap="round" stroke-linejoin="round">
    <path d="M14.7 6.3a4 4 0 0 0-5.4 5.3L3 18l3 3 6.4-6.3a4 4 0 0 0 5.3-5.4l-2.5 2.5-2.8-.7-.7-2.8z"></path>
  </symbol>
  <symbol id="evalve-lightbulb" viewBox="0 0 24 24" fill="none" stroke="currentColor" stroke-width="1.5" stroke-linecap="round" stroke-linejoin="round">
    <path d="M9.5 18h5"></path><path d="M10 21h4"></path><path d="M12 3a6 6 0 0 0-4 10.5c.6.6 1 1.4 1 2.5h6c0-1.1.4-1.9 1-2.5A6 6 0 0 0 12 3z"></path>
  </symbol>
  <symbol id="evalve-graduation-cap" viewBox="0 0 24 24" fill="none" stroke="currentColor" stroke-width="1.5" stroke-linecap="round" stroke-linejoin="round">
    <path d="M2 9 12 4.5 22 9 12 13.5 z"></path><path d="M6 11v4.5c0 1 2.7 2.5 6 2.5s6-1.5 6-2.5V11"></path><path d="M22 9v5"></path>
  </symbol>
  <symbol id="evalve-book-open" viewBox="0 0 24 24" fill="none" stroke="currentColor" stroke-width="1.5" stroke-linecap="round" stroke-linejoin="round">
    <path d="M12 6.5C10.5 5.5 8 5 4 5v13c4 0 6.5.5 8 1.5 1.5-1 4-1.5 8-1.5V5c-4 0-6.5.5-8 1.5z"></path><path d="M12 6.5v13"></path>
  </symbol>
  <symbol id="evalve-school" viewBox="0 0 24 24" fill="none" stroke="currentColor" stroke-width="1.5" stroke-linecap="round" stroke-linejoin="round">
    <rect x="5" y="3.5" width="14" height="17" rx="1"></rect><path d="M9 7h2M13 7h2M9 11h2M13 11h2"></path><path d="M10 20.5V16h4v4.5"></path>
  </symbol>
  <symbol id="evalve-chip" viewBox="0 0 24 24" fill="none" stroke="currentColor" stroke-width="1.5" stroke-linecap="round" stroke-linejoin="round">
    <rect x="7" y="7" width="10" height="10" rx="1"></rect><rect x="10" y="10" width="4" height="4"></rect><path d="M9 3v2M15 3v2M9 19v2M15 19v2M3 9h2M3 15h2M19 9h2M19 15h2"></path>
  </symbol>
  <symbol id="evalve-sparkles" viewBox="0 0 24 24" fill="none" stroke="currentColor" stroke-width="1.5" stroke-linecap="round" stroke-linejoin="round">
    <path d="M12 3l1.8 4.7L18.5 9.5 13.8 11.3 12 16l-1.8-4.7L5.5 9.5 10.2 7.7z"></path><path d="M18.5 14l.7 1.8 1.8.7-1.8.7-.7 1.8-.7-1.8-1.8-.7 1.8-.7z"></path>
  </symbol>
  <symbol id="evalve-settings-gear" viewBox="0 0 24 24" fill="none" stroke="currentColor" stroke-width="1.5" stroke-linecap="round" stroke-linejoin="round">
    <circle cx="12" cy="12" r="3"></circle><path d="M12 4v2.5M12 17.5V20M4 12h2.5M17.5 12H20M6.3 6.3l1.8 1.8M16 16l1.8 1.8M17.7 6.3l-1.8 1.8M8 16l-1.8 1.8"></path>
  </symbol>
  <symbol id="evalve-robot" viewBox="0 0 24 24" fill="none" stroke="currentColor" stroke-width="1.5" stroke-linecap="round" stroke-linejoin="round">
    <rect x="4.5" y="8" width="15" height="11" rx="2.5"></rect><circle cx="9" cy="13" r="1.2"></circle><circle cx="15" cy="13" r="1.2"></circle><path d="M9.5 16.5h5M12 8V4.5M12 4.5h2.5"></path>
  </symbol>
  <symbol id="evalve-workflow" viewBox="0 0 24 24" fill="none" stroke="currentColor" stroke-width="1.5" stroke-linecap="round" stroke-linejoin="round">
    <circle cx="6" cy="5" r="2"></circle><circle cx="6" cy="19" r="2"></circle><circle cx="18" cy="9" r="2"></circle><path d="M6 7v10M6 12h7a3 3 0 0 0 3-3v-.5"></path>
  </symbol>
  <symbol id="evalve-checklist" viewBox="0 0 24 24" fill="none" stroke="currentColor" stroke-width="1.5" stroke-linecap="round" stroke-linejoin="round">
    <path d="M10 6h10M10 12h10M10 18h10"></path><path d="M4 6l1.2 1.2L7.5 5M4 12l1.2 1.2L7.5 11M4 18l1.2 1.2L7.5 17"></path>
  </symbol>
  <symbol id="evalve-cycle" viewBox="0 0 24 24" fill="none" stroke="currentColor" stroke-width="1.5" stroke-linecap="round" stroke-linejoin="round">
    <path d="M20.5 12a8.5 8.5 0 1 1-2.5-6"></path><path d="M20.5 4v4.5H16"></path>
  </symbol>
  <symbol id="evalve-mail" viewBox="0 0 24 24" fill="none" stroke="currentColor" stroke-width="1.5" stroke-linecap="round" stroke-linejoin="round">
    <rect x="3" y="5" width="18" height="14" rx="2"></rect><path d="M3.5 7l8.5 6 8.5-6"></path>
  </symbol>
  <symbol id="evalve-message" viewBox="0 0 24 24" fill="none" stroke="currentColor" stroke-width="1.5" stroke-linecap="round" stroke-linejoin="round">
    <path d="M20.5 12a8 8 0 0 1-11.6 7.1L4 20.5l1.4-4.9A8 8 0 1 1 20.5 12z"></path>
  </symbol>
  <symbol id="evalve-phone" viewBox="0 0 24 24" fill="none" stroke="currentColor" stroke-width="1.5" stroke-linecap="round" stroke-linejoin="round">
    <path d="M5 4h3.5l1.8 4.5-2.3 1.4a11 11 0 0 0 5.1 5.1l1.4-2.3L19 18v3.5a1.5 1.5 0 0 1-1.6 1.5A16.5 16.5 0 0 1 2.5 6 1.5 1.5 0 0 1 4 4.4z"></path>
  </symbol>
  <symbol id="evalve-calendar" viewBox="0 0 24 24" fill="none" stroke="currentColor" stroke-width="1.5" stroke-linecap="round" stroke-linejoin="round">
    <rect x="4" y="5" width="16" height="16" rx="2"></rect><path d="M4 9.5h16M8 3v4M16 3v4"></path>
  </symbol>
  <symbol id="evalve-calendar-check" viewBox="0 0 24 24" fill="none" stroke="currentColor" stroke-width="1.5" stroke-linecap="round" stroke-linejoin="round">
    <rect x="4" y="5" width="16" height="16" rx="2"></rect><path d="M4 9.5h16M8 3v4M16 3v4"></path><path d="M9 15l2 2 4-4"></path>
  </symbol>
  <symbol id="evalve-clock" viewBox="0 0 24 24" fill="none" stroke="currentColor" stroke-width="1.5" stroke-linecap="round" stroke-linejoin="round">
    <circle cx="12" cy="12" r="8.5"></circle><path d="M12 7.5V12l3 2"></path>
  </symbol>
  <symbol id="evalve-bar-chart" viewBox="0 0 24 24" fill="none" stroke="currentColor" stroke-width="1.5" stroke-linecap="round" stroke-linejoin="round">
    <path d="M3.5 20.5h17"></path><rect x="5.5" y="11" width="3" height="7"></rect><rect x="10.5" y="6.5" width="3" height="11.5"></rect><rect x="15.5" y="14" width="3" height="4"></rect>
  </symbol>
  <symbol id="evalve-trending-up" viewBox="0 0 24 24" fill="none" stroke="currentColor" stroke-width="1.5" stroke-linecap="round" stroke-linejoin="round">
    <path d="M3.5 16l5-5 4 4 8-8.5"></path><path d="M16 6.5h4.5V11"></path>
  </symbol>
  <symbol id="evalve-search" viewBox="0 0 24 24" fill="none" stroke="currentColor" stroke-width="1.5" stroke-linecap="round" stroke-linejoin="round">
    <circle cx="11" cy="11" r="6.5"></circle><path d="M16 16l4.5 4.5"></path>
  </symbol>
  <symbol id="evalve-arrow-right" viewBox="0 0 24 24" fill="none" stroke="currentColor" stroke-width="1.5" stroke-linecap="round" stroke-linejoin="round">
    <path d="M4 12h15M13 6l6.5 6-6.5 6"></path>
  </symbol>
  <symbol id="evalve-check-circle" viewBox="0 0 24 24" fill="none" stroke="currentColor" stroke-width="1.5" stroke-linecap="round" stroke-linejoin="round">
    <circle cx="12" cy="12" r="9"></circle><path d="M8 12l3 3 5-6"></path>
  </symbol>
  <symbol id="evalve-x" viewBox="0 0 24 24" fill="none" stroke="currentColor" stroke-width="1.5" stroke-linecap="round" stroke-linejoin="round">
    <path d="M4 4l6.8 8.8L4.4 20H7l5.2-5.6L16.5 20H20l-7.1-9.3L19.4 4H17l-4.7 5.1L8.5 4z"></path>
  </symbol>
  <symbol id="evalve-linkedin" viewBox="0 0 24 24" fill="none" stroke="currentColor" stroke-width="1.5" stroke-linecap="round" stroke-linejoin="round">
    <rect x="3.5" y="3.5" width="17" height="17" rx="3"></rect><path d="M8 10.5v6M8 7.5v.01M12 16.5v-3.2a2.3 2.3 0 0 1 4.5 0v3.2M12 16.5v-6"></path>
  </symbol>
  <symbol id="evalve-instagram" viewBox="0 0 24 24" fill="none" stroke="currentColor" stroke-width="1.5" stroke-linecap="round" stroke-linejoin="round">
    <rect x="4" y="4" width="16" height="16" rx="5"></rect><circle cx="12" cy="12" r="3.6"></circle><circle cx="16.8" cy="7.2" r=".8" fill="currentColor" stroke="none"></circle>
  </symbol>
  <symbol id="evalve-shield" viewBox="0 0 24 24" fill="none" stroke="currentColor" stroke-width="1.5" stroke-linecap="round" stroke-linejoin="round">
    <path d="M12 3l7 2.5v5c0 4.5-3 7.8-7 9-4-1.2-7-4.5-7-9v-5z"></path>
  </symbol>
  <symbol id="evalve-lock" viewBox="0 0 24 24" fill="none" stroke="currentColor" stroke-width="1.5" stroke-linecap="round" stroke-linejoin="round">
    <rect x="5" y="11" width="14" height="9" rx="2"></rect><path d="M8 11V8a4 4 0 0 1 8 0v3"></path><path d="M12 15v2"></path>
  </symbol>
  <symbol id="evalve-key" viewBox="0 0 24 24" fill="none" stroke="currentColor" stroke-width="1.5" stroke-linecap="round" stroke-linejoin="round">
    <circle cx="8" cy="8" r="4"></circle><path d="M11 11l8 8M16 16l2-2M18.5 18.5l2-2"></path>
  </symbol>
  <symbol id="evalve-eye" viewBox="0 0 24 24" fill="none" stroke="currentColor" stroke-width="1.5" stroke-linecap="round" stroke-linejoin="round">
    <path d="M2.5 12S6 5.5 12 5.5 21.5 12 21.5 12 18 18.5 12 18.5 2.5 12 2.5 12z"></path><circle cx="12" cy="12" r="3"></circle>
  </symbol>
  <symbol id="evalve-badge-check" viewBox="0 0 24 24" fill="none" stroke="currentColor" stroke-width="1.5" stroke-linecap="round" stroke-linejoin="round">
    <path d="M9 12l2 2 4-4"></path><path d="M12 3l2.2 1.6 2.7-.2.8 2.6L20 10.4l-1 2.6 1 2.6-2.3 1.4-.8 2.6-2.7-.2L12 21l-2.2-1.6-2.7.2-.8-2.6L4 15.6l1-2.6-1-2.6 2.3-1.4.8-2.6 2.7.2z"></path>
  </symbol>
  <symbol id="evalve-file-text" viewBox="0 0 24 24" fill="none" stroke="currentColor" stroke-width="1.5" stroke-linecap="round" stroke-linejoin="round">
    <path d="M14 3H7a2 2 0 0 0-2 2v14a2 2 0 0 0 2 2h10a2 2 0 0 0 2-2V8z"></path><path d="M14 3v5h5M8.5 13h7M8.5 16.5h7M8.5 9.5h3"></path>
  </symbol>
  <symbol id="evalve-folder" viewBox="0 0 24 24" fill="none" stroke="currentColor" stroke-width="1.5" stroke-linecap="round" stroke-linejoin="round">
    <path d="M3 7a2 2 0 0 1 2-2h4l2 2.5h6a2 2 0 0 1 2 2V18a2 2 0 0 1-2 2H5a2 2 0 0 1-2-2z"></path>
  </symbol>
  <symbol id="evalve-clipboard" viewBox="0 0 24 24" fill="none" stroke="currentColor" stroke-width="1.5" stroke-linecap="round" stroke-linejoin="round">
    <rect x="6" y="4" width="12" height="17" rx="2"></rect><rect x="9" y="2.5" width="6" height="3.5" rx="1"></rect><path d="M9 11h6M9 14.5h6M9 18h4"></path>
  </symbol>
  <symbol id="evalve-copy" viewBox="0 0 24 24" fill="none" stroke="currentColor" stroke-width="1.5" stroke-linecap="round" stroke-linejoin="round">
    <rect x="9" y="9" width="11" height="11" rx="2"></rect><path d="M5 15H4a2 2 0 0 1-2-2V4a2 2 0 0 1 2-2h9a2 2 0 0 1 2 2v1"></path>
  </symbol>
  <symbol id="evalve-bookmark" viewBox="0 0 24 24" fill="none" stroke="currentColor" stroke-width="1.5" stroke-linecap="round" stroke-linejoin="round">
    <path d="M6 3h12v18l-6-4-6 4z"></path>
  </symbol>
  <symbol id="evalve-microphone" viewBox="0 0 24 24" fill="none" stroke="currentColor" stroke-width="1.5" stroke-linecap="round" stroke-linejoin="round">
    <rect x="9" y="3" width="6" height="11" rx="3"></rect><path d="M6 11a6 6 0 0 0 12 0M12 17v4M9 21h6"></path>
  </symbol>
  <symbol id="evalve-headphones" viewBox="0 0 24 24" fill="none" stroke="currentColor" stroke-width="1.5" stroke-linecap="round" stroke-linejoin="round">
    <path d="M4 13v-1a8 8 0 0 1 16 0v1"></path><rect x="3" y="13" width="4" height="7" rx="1.5"></rect><rect x="17" y="13" width="4" height="7" rx="1.5"></rect>
  </symbol>
  <symbol id="evalve-play" viewBox="0 0 24 24" fill="none" stroke="currentColor" stroke-width="1.5" stroke-linecap="round" stroke-linejoin="round">
    <circle cx="12" cy="12" r="9"></circle><path d="M10 8.5l6 3.5-6 3.5z"></path>
  </symbol>
  <symbol id="evalve-video" viewBox="0 0 24 24" fill="none" stroke="currentColor" stroke-width="1.5" stroke-linecap="round" stroke-linejoin="round">
    <rect x="3" y="6" width="13" height="12" rx="2"></rect><path d="M16 10l5-3v10l-5-3z"></path>
  </symbol>
  <symbol id="evalve-image" viewBox="0 0 24 24" fill="none" stroke="currentColor" stroke-width="1.5" stroke-linecap="round" stroke-linejoin="round">
    <rect x="3" y="4" width="18" height="16" rx="2"></rect><circle cx="8.5" cy="9.5" r="1.5"></circle><path d="M21 16l-5-5-9 9"></path>
  </symbol>
  <symbol id="evalve-megaphone" viewBox="0 0 24 24" fill="none" stroke="currentColor" stroke-width="1.5" stroke-linecap="round" stroke-linejoin="round">
    <path d="M3 11v2a1 1 0 0 0 1 1h2l9 5V5L6 10H4a1 1 0 0 0-1 1z"></path><path d="M18 9a4 4 0 0 1 0 6"></path>
  </symbol>
  <symbol id="evalve-dollar" viewBox="0 0 24 24" fill="none" stroke="currentColor" stroke-width="1.5" stroke-linecap="round" stroke-linejoin="round">
    <circle cx="12" cy="12" r="9"></circle><path d="M15 8.5a3 3 0 0 0-3-1.5c-1.7 0-3 1-3 2.3 0 3 6 1.4 6 4.4 0 1.4-1.4 2.3-3 2.3a3.2 3.2 0 0 1-3-1.5M12 5.5v13"></path>
  </symbol>
  <symbol id="evalve-credit-card" viewBox="0 0 24 24" fill="none" stroke="currentColor" stroke-width="1.5" stroke-linecap="round" stroke-linejoin="round">
    <rect x="3" y="6" width="18" height="13" rx="2"></rect><path d="M3 10h18M6.5 15h3"></path>
  </symbol>
  <symbol id="evalve-tag" viewBox="0 0 24 24" fill="none" stroke="currentColor" stroke-width="1.5" stroke-linecap="round" stroke-linejoin="round">
    <path d="M3 12V5a2 2 0 0 1 2-2h7l9 9-7 7z"></path><circle cx="8" cy="8" r="1.3"></circle>
  </symbol>
  <symbol id="evalve-pie-chart" viewBox="0 0 24 24" fill="none" stroke="currentColor" stroke-width="1.5" stroke-linecap="round" stroke-linejoin="round">
    <path d="M12 3v9l7.5 4.2A9 9 0 1 0 12 3z"></path><path d="M12 3a9 9 0 0 1 7.5 13.2L12 12z"></path>
  </symbol>
  <symbol id="evalve-user" viewBox="0 0 24 24" fill="none" stroke="currentColor" stroke-width="1.5" stroke-linecap="round" stroke-linejoin="round">
    <circle cx="12" cy="8" r="4"></circle><path d="M5 20a7 7 0 0 1 14 0z"></path>
  </symbol>
  <symbol id="evalve-users" viewBox="0 0 24 24" fill="none" stroke="currentColor" stroke-width="1.5" stroke-linecap="round" stroke-linejoin="round">
    <circle cx="9" cy="8" r="3.5"></circle><path d="M3 19a6 6 0 0 1 12 0M16 5.5a3.5 3.5 0 0 1 0 6.8M17 13.5a6 6 0 0 1 4 5.5"></path>
  </symbol>
  <symbol id="evalve-user-plus" viewBox="0 0 24 24" fill="none" stroke="currentColor" stroke-width="1.5" stroke-linecap="round" stroke-linejoin="round">
    <circle cx="9" cy="8" r="3.5"></circle><path d="M3 20a6 6 0 0 1 12 0M18 8v6M15 11h6"></path>
  </symbol>
  <symbol id="evalve-user-check" viewBox="0 0 24 24" fill="none" stroke="currentColor" stroke-width="1.5" stroke-linecap="round" stroke-linejoin="round">
    <circle cx="9" cy="8" r="3.5"></circle><path d="M3 20a6 6 0 0 1 12 0M15.5 12.5l2 2 3.5-3.5"></path>
  </symbol>
  <symbol id="evalve-map-pin" viewBox="0 0 24 24" fill="none" stroke="currentColor" stroke-width="1.5" stroke-linecap="round" stroke-linejoin="round">
    <path d="M12 21s7-5.5 7-11a7 7 0 1 0-14 0c0 5.5 7 11 7 11z"></path><circle cx="12" cy="10" r="2.5"></circle>
  </symbol>
  <symbol id="evalve-globe" viewBox="0 0 24 24" fill="none" stroke="currentColor" stroke-width="1.5" stroke-linecap="round" stroke-linejoin="round">
    <circle cx="12" cy="12" r="9"></circle><path d="M3 12h18M12 3c2.5 2.5 2.5 15 0 18M12 3c-2.5 2.5-2.5 15 0 18"></path>
  </symbol>
  <symbol id="evalve-link" viewBox="0 0 24 24" fill="none" stroke="currentColor" stroke-width="1.5" stroke-linecap="round" stroke-linejoin="round">
    <path d="M9 15l6-6M10 6l1.5-1.5a4 4 0 0 1 5.7 5.7L15 12M14 18l-1.5 1.5a4 4 0 0 1-5.7-5.7L9 12"></path>
  </symbol>
  <symbol id="evalve-send" viewBox="0 0 24 24" fill="none" stroke="currentColor" stroke-width="1.5" stroke-linecap="round" stroke-linejoin="round">
    <path d="M21 3L10.5 13.5M21 3l-6.5 18-4-8-8-4z"></path>
  </symbol>
  <symbol id="evalve-brain" viewBox="0 0 24 24" fill="none" stroke="currentColor" stroke-width="1.5" stroke-linecap="round" stroke-linejoin="round">
    <path d="M12 5a3 3 0 0 0-5.5 1.7A3 3 0 0 0 5 12a3 3 0 0 0 1.5 5A3 3 0 0 0 12 19zM12 5a3 3 0 0 1 5.5 1.7A3 3 0 0 1 19 12a3 3 0 0 1-1.5 5A3 3 0 0 1 12 19zM12 5v14"></path>
  </symbol>
  <symbol id="evalve-network" viewBox="0 0 24 24" fill="none" stroke="currentColor" stroke-width="1.5" stroke-linecap="round" stroke-linejoin="round">
    <circle cx="12" cy="5" r="2.2"></circle><circle cx="5" cy="18" r="2.2"></circle><circle cx="19" cy="18" r="2.2"></circle><path d="M12 7.2v3M10.5 12l-4 4M13.5 12l4 4"></path>
  </symbol>
  <symbol id="evalve-terminal" viewBox="0 0 24 24" fill="none" stroke="currentColor" stroke-width="1.5" stroke-linecap="round" stroke-linejoin="round">
    <rect x="3" y="4" width="18" height="16" rx="2"></rect><path d="M7 9l3 3-3 3M13 15h4"></path>
  </symbol>
  <symbol id="evalve-code" viewBox="0 0 24 24" fill="none" stroke="currentColor" stroke-width="1.5" stroke-linecap="round" stroke-linejoin="round">
    <path d="M8 8l-4 4 4 4M16 8l4 4-4 4M14 5l-4 14"></path>
  </symbol>
  <symbol id="evalve-database" viewBox="0 0 24 24" fill="none" stroke="currentColor" stroke-width="1.5" stroke-linecap="round" stroke-linejoin="round">
    <ellipse cx="12" cy="6" rx="7" ry="3"></ellipse><path d="M5 6v6c0 1.7 3.1 3 7 3s7-1.3 7-3V6M5 12v6c0 1.7 3.1 3 7 3s7-1.3 7-3v-6"></path>
  </symbol>
  <symbol id="evalve-layers" viewBox="0 0 24 24" fill="none" stroke="currentColor" stroke-width="1.5" stroke-linecap="round" stroke-linejoin="round">
    <path d="M12 3l9 5-9 5-9-5z"></path><path d="M3 13l9 5 9-5M3 17l9 5 9-5"></path>
  </symbol>
  <symbol id="evalve-target" viewBox="0 0 24 24" fill="none" stroke="currentColor" stroke-width="1.5" stroke-linecap="round" stroke-linejoin="round">
    <circle cx="12" cy="12" r="9"></circle><circle cx="12" cy="12" r="5"></circle><circle cx="12" cy="12" r="1.3" fill="currentColor" stroke="none"></circle>
  </symbol>
  <symbol id="evalve-filter" viewBox="0 0 24 24" fill="none" stroke="currentColor" stroke-width="1.5" stroke-linecap="round" stroke-linejoin="round">
    <path d="M3 5h18l-7 8v6l-4-2v-4z"></path>
  </symbol>
  <symbol id="evalve-star" viewBox="0 0 24 24" fill="none" stroke="currentColor" stroke-width="1.5" stroke-linecap="round" stroke-linejoin="round">
    <path d="M12 3l2.7 5.5 6 .9-4.3 4.2 1 6L12 17l-5.4 2.6 1-6L3.3 9.4l6-.9z"></path>
  </symbol>
  <symbol id="evalve-heart" viewBox="0 0 24 24" fill="none" stroke="currentColor" stroke-width="1.5" stroke-linecap="round" stroke-linejoin="round">
    <path d="M12 20S4 14.5 4 9a4.5 4.5 0 0 1 8-2.8A4.5 4.5 0 0 1 20 9c0 5.5-8 11-8 11z"></path>
  </symbol>
  <symbol id="evalve-plus" viewBox="0 0 24 24" fill="none" stroke="currentColor" stroke-width="1.5" stroke-linecap="round" stroke-linejoin="round">
    <circle cx="12" cy="12" r="9"></circle><path d="M12 8v8M8 12h8"></path>
  </symbol>
  <symbol id="evalve-bell" viewBox="0 0 24 24" fill="none" stroke="currentColor" stroke-width="1.5" stroke-linecap="round" stroke-linejoin="round">
    <path d="M6 9a6 6 0 0 1 12 0c0 5 2 6 2 6H4s2-1 2-6z"></path><path d="M10 19a2 2 0 0 0 4 0"></path>
  </symbol>
  <symbol id="evalve-menu" viewBox="0 0 24 24" fill="none" stroke="currentColor" stroke-width="1.5" stroke-linecap="round" stroke-linejoin="round">
    <path d="M4 7h16M4 12h16M4 17h16"></path>
  </symbol>
  <symbol id="evalve-more-horizontal" viewBox="0 0 24 24" fill="none" stroke="currentColor" stroke-width="1.5" stroke-linecap="round" stroke-linejoin="round">
    <circle cx="5" cy="12" r="1.4" fill="currentColor" stroke="none"></circle><circle cx="12" cy="12" r="1.4" fill="currentColor" stroke="none"></circle><circle cx="19" cy="12" r="1.4" fill="currentColor" stroke="none"></circle>
  </symbol>
  <symbol id="evalve-more-vertical" viewBox="0 0 24 24" fill="none" stroke="currentColor" stroke-width="1.5" stroke-linecap="round" stroke-linejoin="round">
    <circle cx="12" cy="5" r="1.4" fill="currentColor" stroke="none"></circle><circle cx="12" cy="12" r="1.4" fill="currentColor" stroke="none"></circle><circle cx="12" cy="19" r="1.4" fill="currentColor" stroke="none"></circle>
  </symbol>
  <symbol id="evalve-home" viewBox="0 0 24 24" fill="none" stroke="currentColor" stroke-width="1.5" stroke-linecap="round" stroke-linejoin="round">
    <path d="M4 11l8-7 8 7M6 10v9h12v-9"></path><path d="M10 19v-5h4v5"></path>
  </symbol>
  <symbol id="evalve-grid" viewBox="0 0 24 24" fill="none" stroke="currentColor" stroke-width="1.5" stroke-linecap="round" stroke-linejoin="round">
    <rect x="4" y="4" width="7" height="7" rx="1"></rect><rect x="13" y="4" width="7" height="7" rx="1"></rect><rect x="4" y="13" width="7" height="7" rx="1"></rect><rect x="13" y="13" width="7" height="7" rx="1"></rect>
  </symbol>
  <symbol id="evalve-list" viewBox="0 0 24 24" fill="none" stroke="currentColor" stroke-width="1.5" stroke-linecap="round" stroke-linejoin="round">
    <path d="M8 6h12M8 12h12M8 18h12"></path><circle cx="4" cy="6" r="1.2" fill="currentColor" stroke="none"></circle><circle cx="4" cy="12" r="1.2" fill="currentColor" stroke="none"></circle><circle cx="4" cy="18" r="1.2" fill="currentColor" stroke="none"></circle>
  </symbol>
  <symbol id="evalve-maximize" viewBox="0 0 24 24" fill="none" stroke="currentColor" stroke-width="1.5" stroke-linecap="round" stroke-linejoin="round">
    <path d="M8 4H4v4M16 4h4v4M16 20h4v-4M8 20H4v-4"></path>
  </symbol>
  <symbol id="evalve-minimize" viewBox="0 0 24 24" fill="none" stroke="currentColor" stroke-width="1.5" stroke-linecap="round" stroke-linejoin="round">
    <path d="M4 9h4V5M20 9h-4V5M4 15h4v4M20 15h-4v4"></path>
  </symbol>
  <symbol id="evalve-eye-off" viewBox="0 0 24 24" fill="none" stroke="currentColor" stroke-width="1.5" stroke-linecap="round" stroke-linejoin="round">
    <path d="M2.5 12S6 5.5 12 5.5c1.7 0 3.2.5 4.5 1.2M21.5 12s-1.3 2.5-3.8 4.2M9.5 9.6A3 3 0 0 0 12 15a3 3 0 0 0 2.4-1.2M4 4l16 16"></path>
  </symbol>
  <symbol id="evalve-thumbs-up" viewBox="0 0 24 24" fill="none" stroke="currentColor" stroke-width="1.5" stroke-linecap="round" stroke-linejoin="round">
    <path d="M7 11v9H4v-9zM7 11l4-7a2 2 0 0 1 2 2v3h5a2 2 0 0 1 2 2.3l-1 6A2 2 0 0 1 17 20H7"></path>
  </symbol>
  <symbol id="evalve-arrow-left" viewBox="0 0 24 24" fill="none" stroke="currentColor" stroke-width="1.5" stroke-linecap="round" stroke-linejoin="round">
    <path d="M20 12H5M11 6l-6 6 6 6"></path>
  </symbol>
  <symbol id="evalve-arrow-up" viewBox="0 0 24 24" fill="none" stroke="currentColor" stroke-width="1.5" stroke-linecap="round" stroke-linejoin="round">
    <path d="M12 20V5M6 11l6-6 6 6"></path>
  </symbol>
  <symbol id="evalve-arrow-down" viewBox="0 0 24 24" fill="none" stroke="currentColor" stroke-width="1.5" stroke-linecap="round" stroke-linejoin="round">
    <path d="M12 4v15M6 13l6 6 6-6"></path>
  </symbol>
  <symbol id="evalve-chevron-up" viewBox="0 0 24 24" fill="none" stroke="currentColor" stroke-width="1.5" stroke-linecap="round" stroke-linejoin="round">
    <path d="M6 15l6-6 6 6"></path>
  </symbol>
  <symbol id="evalve-chevron-down" viewBox="0 0 24 24" fill="none" stroke="currentColor" stroke-width="1.5" stroke-linecap="round" stroke-linejoin="round">
    <path d="M6 9l6 6 6-6"></path>
  </symbol>
  <symbol id="evalve-chevron-left" viewBox="0 0 24 24" fill="none" stroke="currentColor" stroke-width="1.5" stroke-linecap="round" stroke-linejoin="round">
    <path d="M15 6l-6 6 6 6"></path>
  </symbol>
  <symbol id="evalve-chevron-right" viewBox="0 0 24 24" fill="none" stroke="currentColor" stroke-width="1.5" stroke-linecap="round" stroke-linejoin="round">
    <path d="M9 6l6 6-6 6"></path>
  </symbol>
  <symbol id="evalve-external-link" viewBox="0 0 24 24" fill="none" stroke="currentColor" stroke-width="1.5" stroke-linecap="round" stroke-linejoin="round">
    <path d="M14 4h6v6M20 4l-9 9M18 13v5a2 2 0 0 1-2 2H6a2 2 0 0 1-2-2V8a2 2 0 0 1 2-2h5"></path>
  </symbol>
  <symbol id="evalve-refresh" viewBox="0 0 24 24" fill="none" stroke="currentColor" stroke-width="1.5" stroke-linecap="round" stroke-linejoin="round">
    <path d="M4 12a8 8 0 0 1 13.7-5.7L20 8M20 4v4h-4M20 12a8 8 0 0 1-13.7 5.7L4 16M4 20v-4h4"></path>
  </symbol>
  <symbol id="evalve-alert-triangle" viewBox="0 0 24 24" fill="none" stroke="currentColor" stroke-width="1.5" stroke-linecap="round" stroke-linejoin="round">
    <path d="M12 4l9 16H3z"></path><path d="M12 10v4M12 17v.5"></path>
  </symbol>
  <symbol id="evalve-info" viewBox="0 0 24 24" fill="none" stroke="currentColor" stroke-width="1.5" stroke-linecap="round" stroke-linejoin="round">
    <circle cx="12" cy="12" r="9"></circle><path d="M12 11v5M12 8v.5"></path>
  </symbol>
  <symbol id="evalve-x-circle" viewBox="0 0 24 24" fill="none" stroke="currentColor" stroke-width="1.5" stroke-linecap="round" stroke-linejoin="round">
    <circle cx="12" cy="12" r="9"></circle><path d="M9 9l6 6M15 9l-6 6"></path>
  </symbol>
  <symbol id="evalve-help-circle" viewBox="0 0 24 24" fill="none" stroke="currentColor" stroke-width="1.5" stroke-linecap="round" stroke-linejoin="round">
    <circle cx="12" cy="12" r="9"></circle><path d="M9.5 9.5a2.5 2.5 0 1 1 3.5 2.3c-.8.4-1 .8-1 1.7M12 16.5v.5"></path>
  </symbol>
  <symbol id="evalve-minus-circle" viewBox="0 0 24 24" fill="none" stroke="currentColor" stroke-width="1.5" stroke-linecap="round" stroke-linejoin="round">
    <circle cx="12" cy="12" r="9"></circle><path d="M8 12h8"></path>
  </symbol>
  <symbol id="evalve-pencil" viewBox="0 0 24 24" fill="none" stroke="currentColor" stroke-width="1.5" stroke-linecap="round" stroke-linejoin="round">
    <path d="M4 20l1-4L16 5l3 3L8 19z"></path><path d="M14 7l3 3"></path>
  </symbol>
  <symbol id="evalve-trash" viewBox="0 0 24 24" fill="none" stroke="currentColor" stroke-width="1.5" stroke-linecap="round" stroke-linejoin="round">
    <path d="M4 7h16M9 7V5a1 1 0 0 1 1-1h4a1 1 0 0 1 1 1v2M6 7l1 13h10l1-13"></path><path d="M10 11v6M14 11v6"></path>
  </symbol>
  <symbol id="evalve-download" viewBox="0 0 24 24" fill="none" stroke="currentColor" stroke-width="1.5" stroke-linecap="round" stroke-linejoin="round">
    <path d="M12 4v11M7 11l5 5 5-5M5 20h14"></path>
  </symbol>
  <symbol id="evalve-upload" viewBox="0 0 24 24" fill="none" stroke="currentColor" stroke-width="1.5" stroke-linecap="round" stroke-linejoin="round">
    <path d="M12 16V5M7 9l5-5 5 5M5 20h14"></path>
  </symbol>
  <symbol id="evalve-share" viewBox="0 0 24 24" fill="none" stroke="currentColor" stroke-width="1.5" stroke-linecap="round" stroke-linejoin="round">
    <circle cx="6" cy="12" r="2.5"></circle><circle cx="18" cy="6" r="2.5"></circle><circle cx="18" cy="18" r="2.5"></circle><path d="M8.2 11l7.6-4M8.2 13l7.6 4"></path>
  </symbol>
  <symbol id="evalve-save" viewBox="0 0 24 24" fill="none" stroke="currentColor" stroke-width="1.5" stroke-linecap="round" stroke-linejoin="round">
    <path d="M5 4h11l3 3v13H5z"></path><path d="M8 4v5h7V4M8 20v-6h8v6"></path>
  </symbol>
  <symbol id="evalve-sliders" viewBox="0 0 24 24" fill="none" stroke="currentColor" stroke-width="1.5" stroke-linecap="round" stroke-linejoin="round">
    <path d="M4 7h10M18 7h2M4 17h2M10 17h10"></path><circle cx="16" cy="7" r="2"></circle><circle cx="8" cy="17" r="2"></circle>
  </symbol>
  <symbol id="evalve-paperclip" viewBox="0 0 24 24" fill="none" stroke="currentColor" stroke-width="1.5" stroke-linecap="round" stroke-linejoin="round">
    <path d="M20 11l-8 8a5 5 0 0 1-7-7l8-8a3.3 3.3 0 0 1 4.7 4.7l-8 8a1.7 1.7 0 0 1-2.4-2.4l7.3-7.3"></path>
  </symbol>
  <symbol id="evalve-pin" viewBox="0 0 24 24" fill="none" stroke="currentColor" stroke-width="1.5" stroke-linecap="round" stroke-linejoin="round">
    <path d="M9 4h6l-1 5 3 3v2H7v-2l3-3z"></path><path d="M12 14v6"></path>
  </symbol>
  <symbol id="evalve-flag" viewBox="0 0 24 24" fill="none" stroke="currentColor" stroke-width="1.5" stroke-linecap="round" stroke-linejoin="round">
    <path d="M5 21V4M5 5h11l-2 3 2 3H5"></path>
  </symbol>
  <symbol id="evalve-sun" viewBox="0 0 24 24" fill="none" stroke="currentColor" stroke-width="1.5" stroke-linecap="round" stroke-linejoin="round">
    <circle cx="12" cy="12" r="4"></circle><path d="M12 2v2M12 20v2M2 12h2M20 12h2M5 5l1.5 1.5M17.5 17.5L19 19M19 5l-1.5 1.5M6.5 17.5L5 19"></path>
  </symbol>
  <symbol id="evalve-moon" viewBox="0 0 24 24" fill="none" stroke="currentColor" stroke-width="1.5" stroke-linecap="round" stroke-linejoin="round">
    <path d="M20 13a8 8 0 1 1-9-9 6.5 6.5 0 0 0 9 9z"></path>
  </symbol>
  <symbol id="evalve-rocket" viewBox="0 0 24 24" fill="none" stroke="currentColor" stroke-width="1.5" stroke-linecap="round" stroke-linejoin="round">
    <path d="M5 15c-1 2-1 4-1 4s2 0 4-1M9.5 15.5l-3-3c1-5 5-9 11-9 0 6-4 10-9 11l-3-3z"></path><circle cx="14" cy="10" r="1.5"></circle>
  </symbol>
  <symbol id="evalve-at-sign" viewBox="0 0 24 24" fill="none" stroke="currentColor" stroke-width="1.5" stroke-linecap="round" stroke-linejoin="round">
    <circle cx="12" cy="12" r="3.5"></circle><path d="M15.5 12v1.5a2.5 2.5 0 0 0 5 0V12a8.5 8.5 0 1 0-3.5 6.9"></path>
  </symbol>
  <symbol id="evalve-gift" viewBox="0 0 24 24" fill="none" stroke="currentColor" stroke-width="1.5" stroke-linecap="round" stroke-linejoin="round">
    <rect x="4" y="9" width="16" height="11" rx="1"></rect><path d="M4 13h16M12 9v11M9 9a2.5 2.5 0 1 1 3-3 2.5 2.5 0 1 1 3 3"></path>
  </symbol>
</svg>