<?xml version="1.0" encoding="UTF-8"?>
<!DOCTYPE svg PUBLIC "-//W3C//DTD SVG 1.1//EN" "http://www.w3.org/Graphics/SVG/1.1/DTD/svg11.dtd">
<!-- Creator: CorelDRAW 2021 (64-Bit) -->
<svg xmlns="http://www.w3.org/2000/svg" xml:space="preserve" width="12in" height="7.5in" version="1.1" style="shape-rendering:geometricPrecision; text-rendering:geometricPrecision; image-rendering:optimizeQuality; fill-rule:evenodd; clip-rule:evenodd"
viewBox="0 0 12000 7500"
 xmlns:xlink="http://www.w3.org/1999/xlink"
 xmlns:xodm="http://www.corel.com/coreldraw/odm/2003">
 <defs>
  <style type="text/css">
   <![CDATA[
    .fil0 {fill:white}
   ]]>
  </style>
 </defs>
 <g id="Layer_x0020_1">
  <metadata id="CorelCorpID_0Corel-Layer"/>
  <path class="fil0" d="M6001.88 2026.53c528.34,-45.83 1047.54,85.34 1455.46,365.7 -336.87,-169.19 -840.85,-233.84 -1265.2,-182.08 -906.73,110.59 -1818.63,798.78 -1564.97,1685.27 -233.41,68.76 -424.86,98.39 -644.04,85.43 -3.12,-39.37 -4.83,-79.21 -4.83,-119.53 0,-975.08 881.89,-1735.74 2023.58,-1834.78zm-1194.34 2419.53c276.46,340.03 789.14,504.55 1395.04,415.61 915.15,-134.33 1630.63,-895.57 1618.85,-1617.4 -3.14,-192.37 -43.25,-378.3 -128.08,-536.49 205.53,261.84 326.75,580.89 332.11,925.87 14.76,947.49 -854.07,1817.8 -1994.94,1847.8 -986.55,25.94 -1765.23,-465.5 -1987.84,-1187.83 279.34,106.23 490.47,142.7 764.86,152.43z"/>
  <path class="fil0" d="M6226.89 3566.5c370.26,-229.61 500.82,-385.18 439.76,-562.89 -46.49,-135.31 -295.41,-222.75 -677.43,-151.89 -571.03,105.92 -981.15,367.01 -1218.09,665.99 229.79,-562.96 959.85,-1026.81 1660.15,-1073.04 691.39,-45.64 1030.66,225.59 1006.52,597.96 -10.82,166.77 -95.87,343.69 -248.21,507.61 -246.11,264.8 -662.82,500.89 -1188.06,643.91 -851.26,231.8 -1703.38,134.91 -2027.17,-74.38 703.2,43.1 1481.57,-134.77 2252.54,-553.28z"/>
 </g>
</svg>
