<?xml version="1.0" encoding="UTF-8"?>
<!DOCTYPE svg PUBLIC "-//W3C//DTD SVG 1.1//EN" "http://www.w3.org/Graphics/SVG/1.1/DTD/svg11.dtd">
<!-- Creator: CorelDRAW 2021 (64-Bit) -->
<svg xmlns="http://www.w3.org/2000/svg" xml:space="preserve" width="12in" height="7.5in" version="1.1" style="shape-rendering:geometricPrecision; text-rendering:geometricPrecision; image-rendering:optimizeQuality; fill-rule:evenodd; clip-rule:evenodd"
viewBox="0 0 12000 7500"
 xmlns:xlink="http://www.w3.org/1999/xlink"
 xmlns:xodm="http://www.corel.com/coreldraw/odm/2003">
 <defs>
  <style type="text/css">
   <![CDATA[
    .fil0 {fill:white}
    .fil1 {fill:white;fill-rule:nonzero}
   ]]>
  </style>
 </defs>
 <g id="Layer_x0020_1">
  <metadata id="CorelCorpID_0Corel-Layer"/>
  <path class="fil0" d="M5999.94 1780.24c361.14,-31.32 716.03,58.33 994.87,249.97 -230.27,-115.65 -574.76,-159.84 -864.82,-124.46 -619.79,75.59 -1243.11,546 -1069.72,1151.94 -159.54,47 -290.41,67.26 -440.22,58.39 -2.13,-26.91 -3.3,-54.15 -3.3,-81.7 0,-666.51 602.81,-1186.45 1383.2,-1254.15zm-816.38 1653.84c188.98,232.43 539.41,344.89 953.56,284.09 625.54,-91.82 1114.6,-612.16 1106.55,-1105.56 -2.14,-131.49 -29.56,-258.58 -87.55,-366.71 140.48,178.98 223.34,397.06 227.01,632.87 10.09,647.65 -583.8,1242.54 -1363.62,1263.04 -674.35,17.73 -1206.6,-318.19 -1358.77,-811.93 190.94,72.61 335.26,97.55 522.81,104.19z"/>
  <path class="fil0" d="M6153.74 2832.87c253.09,-156.95 342.33,-263.29 300.59,-384.76 -31.78,-92.49 -201.92,-152.26 -463.05,-103.82 -390.32,72.4 -670.66,250.87 -832.61,455.23 157.07,-384.81 656.1,-701.87 1134.78,-733.46 472.59,-31.2 704.5,154.2 687.99,408.73 -7.39,113.99 -65.53,234.93 -169.66,346.97 -168.23,181 -453.06,342.37 -812.09,440.14 -581.87,158.44 -1164.33,92.22 -1385.65,-50.84 480.66,29.46 1012.71,-92.12 1539.7,-378.19z"/>
  <polygon class="fil0" points="3674.91,4595.48 3674.91,4729.8 4188.02,4729.8 4188.02,4863.47 3674.91,4863.47 3674.91,5008.18 4241.13,5008.18 4241.13,5151.04 3674.91,5151.04 3639.38,5151.04 3497.47,5151.04 3497.47,4595.48 3497.47,4533.44 3497.47,4452.71 4230.82,4452.71 4230.82,4595.48 "/>
  <polygon class="fil0" points="4303.95,4452.71 4689.97,5151.04 4884.13,5151.04 5270.15,4452.71 5074,4452.71 4787.05,4986.6 4500.09,4452.71 "/>
  <path class="fil0" d="M5118.45 5151.04l386.02 -698.33 194.15 0 386.02 698.33 -196.14 0 -71.83 -133.65 -430.24 0 -71.83 133.65 -196.14 0zm623.9 -271.93l-140.8 -261.96 -140.8 261.96 281.61 0z"/>
  <polygon class="fil0" points="6174.31,4452.71 6349.62,4452.71 6349.62,5007.79 6848.72,5007.79 6848.72,5151.04 6349.62,5151.04 6259.44,5151.04 6174.31,5151.04 "/>
  <polygon class="fil0" points="7936.48,4595.48 7936.48,4729.8 8449.6,4729.8 8449.6,4863.47 7936.48,4863.47 7936.48,5008.18 8502.7,5008.18 8502.7,5151.04 7936.48,5151.04 7900.96,5151.04 7759.05,5151.04 7759.05,4595.48 7759.05,4533.44 7759.05,4452.71 8492.39,4452.71 8492.39,4595.48 "/>
  <polygon class="fil0" points="6714.07,4452.71 7100.09,5151.04 7294.24,5151.04 7680.26,4452.71 7484.12,4452.71 7197.17,4986.6 6910.21,4452.71 "/>
  <path class="fil1" d="M4357 5667.69l-42.39 -44.21c-31.08,28.42 -59.81,40.6 -95.6,40.6 -65.93,0 -112.09,-41.95 -112.09,-102.85 0,-59.99 43.8,-101.49 109.26,-101.49 34.85,0 63.58,13.98 87.13,36.54l47.56 -44.2c-29.67,-31.57 -78.65,-53.22 -135.63,-53.22 -103.61,0 -180.37,69.01 -180.37,162.83 0,96.53 81.94,163.74 181.32,163.74 60.75,0 109.26,-24.36 140.81,-57.74z"/>
  <path class="fil1" d="M4625.14 5398.85c-102.67,0 -181.79,67.21 -181.79,163.29 0,96.07 79.12,163.29 181.79,163.29 102.67,0 181.79,-67.21 181.79,-163.29 0,-96.08 -79.12,-163.29 -181.79,-163.29zm0 266.13c-66.41,0 -109.73,-41.95 -109.73,-102.84 0,-60.9 43.33,-102.4 109.73,-102.4 66.41,0 109.73,41.5 109.73,102.4 0,60.89 -43.33,102.84 -109.73,102.84z"/>
  <polygon class="fil1" points="5235.5,5404.26 5165.79,5404.26 5165.79,5605.69 5159.2,5598.22 4987.77,5404.26 4926.55,5404.26 4926.55,5720.02 4996.25,5720.02 4996.25,5517.31 5175.41,5720.02 5235.5,5720.02 "/>
  <path class="fil1" d="M5432.17 5493.3c0.48,-21.76 27.17,-36.26 63.34,-36.26 28.35,0 64.38,9.94 97.06,25.74l26.43 -52.23c-31.77,-16.24 -70.7,-30.86 -117.63,-30.86 -82.12,0 -142.2,38.53 -141.18,98.96 1.38,82.11 106.95,84.77 164.84,102.34 21.93,6.66 37.02,14.58 37.02,31.06 0,25.71 -36.72,34.28 -67.03,34.28 -40.57,0 -84.06,-14.97 -115.35,-32.11l-27.37 52.98c30.3,19.4 82.6,38.68 143.7,38.68 82.12,0 137.84,-39.16 137.84,-100.59 0,-64.36 -62.33,-78.13 -117.68,-87.51 -48.77,-8.27 -84.59,-17.34 -83.99,-44.48z"/>
  <path class="fil1" d="M6049.88 5404.26l-71.3 0 0 180.88c0,51.43 -36.85,79.39 -82.3,79.39 -46.42,0 -82.31,-27.97 -82.31,-79.39l0 -180.88 -71.77 0 0 180.88c0,87.96 65.55,140.74 154.08,140.74 87.56,0 153.6,-52.78 153.6,-140.74l0 -180.88z"/>
  <polygon class="fil1" points="6420.71,5660.93 6250.07,5660.93 6250.07,5404.26 6177.5,5404.26 6177.5,5720.02 6420.71,5720.02 "/>
  <polygon class="fil1" points="6752,5404.26 6467.6,5404.26 6461.57,5404.26 6461.57,5463.35 6467.6,5463.35 6572.95,5463.35 6572.95,5720.02 6646.16,5720.02 6646.16,5463.35 6752,5463.35 6758.03,5463.35 6758.03,5404.26 "/>
  <polygon class="fil1" points="6933.3,5404.26 6860.74,5404.26 6860.74,5720.02 6933.3,5720.02 "/>
  <path class="fil1" d="M7749.34 5559.46l0 11.9 0 26.41 0 51.43c-13.34,7.28 -36.63,15.89 -69,16.23 -62.32,0.64 -108.84,-43.76 -108.84,-103.75 0,-61.34 48.75,-102.78 109.78,-101.94 31.95,0.44 69.28,11.28 92.22,37.96l46.98 -45.09c-35.08,-35.5 -93.81,-53.76 -138.28,-53.76 -103.76,0 -185.49,66.76 -185.49,163.29 0,94.72 79.87,163.29 180.85,163.29 74.1,0 122.74,-31.12 141.73,-45.56l0 -120.41 -69.96 0z"/>
  <polygon class="fil1" points="7381,5404.26 7311.3,5404.26 7311.3,5605.69 7304.7,5598.22 7133.28,5404.26 7072.06,5404.26 7072.06,5720.02 7141.76,5720.02 7141.76,5517.31 7320.92,5720.02 7381,5720.02 "/>
 </g>
</svg>
